<svg width="290" height="381" viewBox="0 0 290 381" fill="none" xmlns="http://www.w3.org/2000/svg">
<g style="mix-blend-mode:soft-light">
<path style="mix-blend-mode:soft-light" d="M112.779 6.89192C111.987 6.14674 110.981 5.73782 109.981 5.75388C108.981 5.76993 108.066 6.20965 107.436 6.97767C107.099 7.57154 106.9 8.25261 106.854 8.97029C106.786 9.91493 106.937 10.8861 107.294 11.8C107.65 12.7139 108.202 13.5432 108.901 14.2162C109.63 14.8656 110.508 15.2772 111.414 15.3946C112.319 15.5119 113.209 15.3294 113.961 14.872C114.59 14.3944 115.032 13.6912 115.219 12.8717C115.24 11.7872 115.032 10.6871 114.609 9.65226C114.187 8.61743 113.562 7.67421 112.779 6.89192Z" fill="url(#paint0_linear_152_83)"/>
<path style="mix-blend-mode:soft-light" d="M95.426 38.8563C96.5302 38.0678 97.4989 37.0922 98.299 35.9627C99.67 34.1109 100.25 31.6829 99.9133 29.2001C99.5279 27.0357 98.4453 25.0119 96.8587 23.49C95.145 21.8485 93.0372 20.7863 90.8436 20.459C88.6499 20.1316 86.4856 20.5563 84.6671 21.6708C82.8487 22.7853 81.4716 24.5312 80.7373 26.6531C80.003 28.7749 79.95 31.1614 80.5861 33.4634C81.1033 35.4074 82.1433 37.1979 83.5708 38.6016C84.9982 40.0053 86.747 40.9573 88.5895 41.3337C89.9684 41.5359 91.3392 41.3796 92.5837 40.8783C93.6384 40.3765 94.5972 39.6944 95.426 38.8563Z" fill="url(#paint1_linear_152_83)"/>
<path style="mix-blend-mode:soft-light" d="M126.038 13.7795C125.679 13.6966 125.316 13.6934 124.97 13.7702C124.625 13.8471 124.307 14.0021 124.034 14.2255C123.762 14.4489 123.543 14.7357 123.39 15.0674C123.237 15.3991 123.154 15.7685 123.147 16.1516C123.193 16.6159 123.339 17.0732 123.574 17.4867C123.939 18.2341 124.519 18.8516 125.22 19.2377C125.921 19.6238 126.701 19.7556 127.431 19.6115C127.88 19.4434 128.265 19.1409 128.543 18.7373C128.821 18.3338 128.981 17.8446 129.006 17.3236L128.884 17.3889C128.795 16.5807 128.473 15.7975 127.962 15.1499C127.451 14.5023 126.778 14.0229 126.038 13.7795Z" fill="url(#paint2_linear_152_83)"/>
<path style="mix-blend-mode:soft-light" d="M124.777 37.1943C123.075 37.0606 121.436 37.5386 120.123 38.552C118.809 39.5654 117.897 41.0559 117.531 42.7857C117.165 44.5156 117.366 46.3852 118.103 48.0964C118.84 49.8077 120.07 51.2619 121.597 52.2273C123.383 53.2525 125.403 53.5423 127.24 53.037C129.077 52.5317 130.591 51.2699 131.471 49.5112C131.814 48.6957 132.062 47.8304 132.211 46.9329L132.63 47.0329C132.767 45.4484 132.455 43.8089 131.732 42.3222C131.06 40.9143 130.056 39.6923 128.83 38.7884C127.604 37.8846 126.203 37.3333 124.777 37.1943Z" fill="url(#paint3_linear_152_83)"/>
<path style="mix-blend-mode:soft-light" d="M111.197 90.1467C113.092 86.6321 113.602 82.3473 112.625 78.1454C111.306 73.0248 108.58 68.3054 104.816 64.6255C103.12 62.6768 101.082 61.1056 98.8442 60.0211C96.6061 58.9365 94.2215 58.3646 91.8562 58.3451C84.9219 58.9281 81.1058 66.3671 75.5719 70.4483C71.5302 73.4067 66.113 74.9185 63.8427 79.6723C62.9728 81.8886 62.693 84.3712 63.0318 86.8682C63.3705 89.3652 64.3158 91.7876 65.7715 93.8893C71.2887 102.736 82.0619 107.03 91.2583 105.444C99.8243 103.638 107.082 98.2983 111.532 90.5281L111.197 90.1467Z" fill="url(#paint4_linear_152_83)"/>
<path style="mix-blend-mode:soft-light" d="M186.309 274.42C184.663 274.375 183.109 274.943 181.915 276.029C180.721 277.114 179.959 278.649 179.761 280.371C179.649 282.109 180.146 283.894 181.157 285.387C182.168 286.881 183.623 287.977 185.244 288.469C186.603 288.735 187.966 288.595 189.18 288.065C190.395 287.535 191.412 286.637 192.117 285.471C193.217 283.573 193.643 281.266 193.324 278.926C192.568 277.62 191.521 276.516 190.29 275.726C189.059 274.935 187.686 274.485 186.309 274.42Z" fill="url(#paint5_linear_152_83)"/>
<path style="mix-blend-mode:soft-light" d="M219.501 289.522C217.435 287.916 214.947 287.165 212.552 287.424C210.158 287.684 208.042 288.933 206.643 290.914C205.333 292.956 204.608 295.398 204.545 297.978C204.483 300.559 205.085 303.179 206.288 305.557C207.153 307.538 208.528 309.256 210.237 310.493C212.185 311.539 214.35 311.843 216.344 311.349C218.338 310.855 220.031 309.597 221.117 307.799C222.146 305.961 222.788 303.877 223.001 301.677C223.215 299.478 222.997 297.209 222.36 295.012L222.787 294.784C222.168 292.773 221.025 290.944 219.501 289.522Z" fill="url(#paint6_linear_152_83)"/>
<path style="mix-blend-mode:soft-light" d="M161.347 325.852C157.747 327.778 153.903 329.834 152.099 333.749C150.549 337.888 150.615 342.668 152.283 347.1C154.821 355.747 160.355 363.317 167.69 368.175C173.313 371.713 179.771 372.976 185.776 371.714L185.538 370.927C190.347 368.322 194.892 365.249 199.121 361.744C200.817 360.462 202.298 358.895 203.513 357.094C205.449 353.38 206.382 349.087 206.218 344.645C206.848 338.206 206.096 331.553 204.018 325.176C201.613 318.97 196.23 313.356 190.16 312.916C186.248 312.98 182.513 314.105 179.302 316.188L161.347 325.852Z" fill="url(#paint7_linear_152_83)"/>
</g>
<defs>
<linearGradient id="paint0_linear_152_83" x1="113.807" y1="14.6018" x2="108.797" y2="5.4845" gradientUnits="userSpaceOnUse">
<stop stop-color="#E5FFFF"/>
<stop offset="1" stop-color="white"/>
</linearGradient>
<linearGradient id="paint1_linear_152_83" x1="95.2428" y1="39.0782" x2="85.2722" y2="20.9348" gradientUnits="userSpaceOnUse">
<stop stop-color="#E5FFFF"/>
<stop offset="1" stop-color="white"/>
</linearGradient>
<linearGradient id="paint2_linear_152_83" x1="128.038" y1="18.9488" x2="124.957" y2="13.3417" gradientUnits="userSpaceOnUse">
<stop stop-color="#E5FFFF"/>
<stop offset="1" stop-color="white"/>
</linearGradient>
<linearGradient id="paint3_linear_152_83" x1="129.251" y1="51.6688" x2="121.372" y2="37.3319" gradientUnits="userSpaceOnUse">
<stop stop-color="#E5FFFF"/>
<stop offset="1" stop-color="white"/>
</linearGradient>
<linearGradient id="paint4_linear_152_83" x1="99.2466" y1="102.019" x2="78.4412" y2="64.1589" gradientUnits="userSpaceOnUse">
<stop stop-color="#E5FFFF"/>
<stop offset="1" stop-color="white"/>
</linearGradient>
<linearGradient id="paint5_linear_152_83" x1="190.322" y1="286.979" x2="183.483" y2="274.533" gradientUnits="userSpaceOnUse">
<stop stop-color="#E5FFFF"/>
<stop offset="1" stop-color="white"/>
</linearGradient>
<linearGradient id="paint6_linear_152_83" x1="220.05" y1="309.103" x2="208.689" y2="288.43" gradientUnits="userSpaceOnUse">
<stop stop-color="#E5FFFF"/>
<stop offset="1" stop-color="white"/>
</linearGradient>
<linearGradient id="paint7_linear_152_83" x1="194.667" y1="366.321" x2="169.627" y2="320.757" gradientUnits="userSpaceOnUse">
<stop stop-color="#E5FFFF"/>
<stop offset="1" stop-color="white"/>
</linearGradient>
</defs>
</svg>
