<svg width="79" height="202" viewBox="0 0 79 202" fill="none" xmlns="http://www.w3.org/2000/svg">
<g style="mix-blend-mode:soft-light">
<path style="mix-blend-mode:soft-light" d="M30.1091 181.176C23.7042 175.61 12.7518 174.324 5.49643 178.928C3.40296 180.181 1.7579 181.946 0.757894 184.012C0.12897 185.527 -0.113244 187.149 0.0489137 188.758C0.211072 190.367 0.773497 191.923 1.69518 193.314C3.56824 196.085 6.37533 198.255 9.71426 199.515C14.1596 201.336 19.2297 201.52 23.8257 200.026C26.0925 199.267 28.1155 198.021 29.7166 196.399C31.3177 194.777 32.4479 192.829 33.0077 190.725C33.3804 189.043 33.3193 187.308 32.8291 185.651C32.3389 183.994 31.4324 182.458 30.1785 181.16L30.1091 181.176Z" fill="url(#paint0_linear_152_72)"/>
<path style="mix-blend-mode:soft-light" d="M10.0614 141.878C8.91694 141.446 7.65791 141.317 6.43374 141.506C5.12426 141.767 3.9307 142.368 3.00389 143.235C2.07707 144.101 1.45859 145.193 1.22655 146.373C1.03956 147.57 1.23918 148.789 1.80191 149.888C2.36464 150.986 3.26706 151.918 4.40294 152.574C5.63405 153.213 6.99865 153.619 8.41247 153.768C9.68055 154.05 11.0059 154.056 12.2773 153.787C13.5487 153.517 14.7292 152.979 15.7199 152.218C16.3614 151.549 16.8093 150.75 17.0242 149.89C17.2391 149.031 17.2144 148.137 16.9522 147.288C16.3773 145.591 15.1943 144.11 13.5849 143.071C12.5921 142.391 11.4769 141.867 10.2871 141.521L10.0614 141.878Z" fill="url(#paint1_linear_152_72)"/>
<path style="mix-blend-mode:soft-light" d="M22.2115 160.108C21.6563 160.537 21.2427 161.093 21.0154 161.716C20.7882 162.339 20.7559 163.006 20.9221 163.644C21.0882 164.282 21.4466 164.868 21.9583 165.338C22.4701 165.807 23.1158 166.143 23.8257 166.309C24.9342 166.616 26.0652 166.854 27.2104 167.022C29.7031 167.498 32.0638 168.416 34.1533 169.72C35.108 170.324 36.4792 170.975 37.295 170.247C37.516 170.014 37.6708 169.738 37.7463 169.441C38.2558 167.825 38.2249 166.111 37.6574 164.511C37.09 162.91 36.0107 161.493 34.5525 160.434L34.674 160.279C33.393 159.332 31.944 158.583 30.3868 158.062C28.9487 157.659 27.4103 157.637 25.9589 158.001C24.5074 158.364 23.2055 159.096 22.2115 160.108Z" fill="url(#paint2_linear_152_72)"/>
<path style="mix-blend-mode:soft-light" d="M24.277 127.166C23.9861 127.639 23.8996 128.191 24.034 128.717C24.1866 129.378 24.5852 129.974 25.165 130.407C25.7449 130.841 26.4719 131.086 27.2278 131.104C27.9825 131.087 28.7035 130.821 29.2516 130.357C29.7997 129.893 30.1361 129.265 30.1959 128.593C30.2038 128.16 30.0885 127.732 29.8608 127.35C29.6331 126.967 29.3005 126.643 28.8941 126.407V126.515C28.1054 126.28 27.2781 126.165 26.4467 126.174C26.0211 126.165 25.5996 126.251 25.2206 126.424C24.8417 126.597 24.5173 126.852 24.277 127.166Z" fill="url(#paint3_linear_152_72)"/>
<path style="mix-blend-mode:soft-light" d="M47.6052 139.134C47.9726 138.461 48.0408 137.688 47.796 136.972C47.5513 136.256 47.0117 135.649 46.286 135.274C45.5389 134.934 44.7121 134.756 43.8734 134.756C43.0347 134.756 42.2079 134.934 41.4607 135.274C40.9353 135.444 40.453 135.706 40.0418 136.044C39.6306 136.382 39.2988 136.789 39.0654 137.243C38.8598 138.064 38.9564 138.922 39.3411 139.691C39.7258 140.459 40.3779 141.095 41.2004 141.506C42.9361 142.513 45.4355 142.839 46.8068 141.506C47.1152 141.181 47.3453 140.802 47.4827 140.394C47.62 139.986 47.6618 139.557 47.6052 139.134Z" fill="url(#paint4_linear_152_72)"/>
<path style="mix-blend-mode:soft-light" d="M42.0509 59.1587C40.6491 57.6775 39.4381 56.0603 38.4406 54.3376C36.5139 51.0976 34.9691 47.1756 31.3067 45.6254C29.306 44.8878 27.0976 44.7252 24.9887 45.1603C21.4337 45.8721 18.1424 47.3858 15.4288 49.5569C12.7153 51.728 10.6701 54.4841 9.4886 57.562C7.24727 63.8093 7.71181 70.5804 10.7904 76.5366C14.3949 83.8865 21.0167 89.723 29.2933 92.8447C33.4214 94.3422 37.8473 95.0745 42.3022 94.9972C46.757 94.9199 51.1477 94.0347 55.2077 92.3952C59.2519 90.7365 63.0879 87.9926 64.3029 84.1791C65.6915 79.8385 63.2962 75.1414 59.8247 71.8704C56.3533 68.5995 51.8577 66.3672 47.7788 63.6853C45.6931 62.3406 43.7937 60.7795 42.1203 59.0347L42.0509 59.1587Z" fill="url(#paint5_linear_152_72)"/>
<path style="mix-blend-mode:soft-light" d="M43.6998 2.32796C42.9307 2.89213 42.312 3.60225 41.8887 4.4067C41.4654 5.21115 41.248 6.08973 41.2524 6.97859C41.4226 7.67901 41.7463 8.34241 42.2051 8.93043C42.6639 9.51846 43.2486 10.0195 43.9255 10.4045C45.8083 11.7042 48.1668 12.3289 50.5386 12.1563C51.3686 12.1068 52.1775 11.9016 52.9128 11.5541C53.648 11.2066 54.2929 10.7246 54.8055 10.1395C55.3182 9.55439 55.6869 8.87938 55.8878 8.15845C56.0887 7.43752 56.1172 6.68688 55.9714 5.95546C55.7969 4.69146 55.1909 3.5061 54.2357 2.5605C53.0207 2.18845 52.1181 1.01029 50.9204 0.421213C50.3136 0.160577 49.652 0.0175456 48.9789 0.00151516C48.3058 -0.0145153 47.6365 0.09681 47.0151 0.328193C45.7637 0.777345 44.6337 1.45901 43.6998 2.32796Z" fill="url(#paint6_linear_152_72)"/>
<path style="mix-blend-mode:soft-light" d="M73.9362 28.3561C72.0229 26.4236 69.5647 24.9843 66.8173 24.1882C64.0699 23.3921 61.1338 23.2683 58.3146 23.8295C54.9826 24.636 51.9877 26.2958 49.6992 28.6042C47.4107 30.9125 45.9285 33.7686 45.4355 36.8202C45.0303 39.8851 45.5244 42.9915 46.8695 45.8343C48.2145 48.6772 50.3642 51.1587 53.1075 53.0354C57.5683 56.1358 63.7995 57.407 68.9199 55.3762C72.3055 53.8885 75.0057 51.3947 76.5571 48.3228C77.8496 45.9218 78.5991 43.3167 78.763 40.6566C78.9268 37.9966 78.5016 35.3338 77.5118 32.8207C76.9095 31.0185 75.6512 29.4474 73.9362 28.3561Z" fill="url(#paint7_linear_152_72)"/>
</g>
<defs>
<linearGradient id="paint0_linear_152_72" x1="33.2507" y1="188.555" x2="-0.00581789" y2="188.555" gradientUnits="userSpaceOnUse">
<stop stop-color="#E5FFFF"/>
<stop offset="1" stop-color="white"/>
</linearGradient>
<linearGradient id="paint1_linear_152_72" x1="17.1258" y1="147.691" x2="1.12241" y2="147.691" gradientUnits="userSpaceOnUse">
<stop stop-color="#E5FFFF"/>
<stop offset="1" stop-color="white"/>
</linearGradient>
<linearGradient id="paint2_linear_152_72" x1="38.0934" y1="164.154" x2="20.9444" y2="164.154" gradientUnits="userSpaceOnUse">
<stop stop-color="#E5FFFF"/>
<stop offset="1" stop-color="white"/>
</linearGradient>
<linearGradient id="paint3_linear_152_72" x1="30.1959" y1="128.624" x2="23.982" y2="128.624" gradientUnits="userSpaceOnUse">
<stop stop-color="#E5FFFF"/>
<stop offset="1" stop-color="white"/>
</linearGradient>
<linearGradient id="paint4_linear_152_72" x1="47.9871" y1="138.529" x2="38.8919" y2="138.529" gradientUnits="userSpaceOnUse">
<stop stop-color="#E5FFFF"/>
<stop offset="1" stop-color="white"/>
</linearGradient>
<linearGradient id="paint5_linear_152_72" x1="64.7021" y1="69.9792" x2="8.0653" y2="69.9792" gradientUnits="userSpaceOnUse">
<stop stop-color="#E5FFFF"/>
<stop offset="1" stop-color="white"/>
</linearGradient>
<linearGradient id="paint6_linear_152_72" x1="56.0582" y1="6.12598" x2="41.2177" y2="6.12598" gradientUnits="userSpaceOnUse">
<stop stop-color="#E5FFFF"/>
<stop offset="1" stop-color="white"/>
</linearGradient>
<linearGradient id="paint7_linear_152_72" x1="78.7615" y1="39.9051" x2="45.2273" y2="39.9051" gradientUnits="userSpaceOnUse">
<stop stop-color="#E5FFFF"/>
<stop offset="1" stop-color="white"/>
</linearGradient>
</defs>
</svg>
